<svg xmlns="http://www.w3.org/2000/svg" version="1.1" xmlns:xlink="http://www.w3.org/1999/xlink" xmlns:svgjs="http://svgjs.dev/svgjs" width="2000" height="449" viewBox="0 0 2000 449"><g transform="matrix(1,0,0,1,-1.2121212121212466,1.2578809922486869)"><svg viewBox="0 0 396 89" data-background-color="#ffffff" preserveAspectRatio="xMidYMid meet" height="449" width="2000" xmlns="http://www.w3.org/2000/svg" xmlns:xlink="http://www.w3.org/1999/xlink"><g id="tight-bounds" transform="matrix(1,0,0,1,0.2400000000000091,-0.24933498510051777)"><svg viewBox="0 0 395.52 89.49866997020104" height="89.49866997020104" width="395.52"><g><svg viewBox="0 0 521.4563832345477 117.99568352286474" height="89.49866997020104" width="395.52"><g></g><g transform="matrix(1,0,0,1,125.93638323454778,19.665947253810792)"><svg viewBox="0 0 395.52 78.66378901524315" height="78.66378901524315" width="395.52"><g id="textblocktransform"><svg viewBox="0 0 395.52 78.66378901524315" height="78.66378901524315" width="395.52" id="textblock"><g><svg viewBox="0 0 395.52 78.66378901524315" height="78.66378901524315" width="395.52"><g transform="matrix(1,0,0,1,0,0)"><svg width="395.52" viewBox="2.8 -40.75 206.63 41.1" height="78.66378901524315" data-palette-color="url(#bfe9f962-2c86-4e59-b7a7-94b57fad0c28)"></svg></g></svg></g></svg></g></svg></g><g><svg viewBox="0 0 81.70113624899778 117.99568352286474" height="117.99568352286474" width="81.70113624899778"><g><svg xmlns="http://www.w3.org/2000/svg" xmlns:xlink="http://www.w3.org/1999/xlink" version="1.1" x="0" y="0" viewBox="28.438000000000006 18.657787156984757 43.12400000000001 62.281212843015254" enable-background="new 0 0 100 100" xml:space="preserve" height="117.99568352286474" width="81.70113624899778" class="icon-icon-0" data-fill-palette-color="accent" id="icon-0"></svg></g></svg></g></svg></g><defs></defs><mask id="13e0e5f2-78c4-49a9-8244-670bf0dd6fbf"><g id="SvgjsG1076"><svg viewBox="0 0 395.52 89.49866997020104" height="89.49866997020104" width="395.52"><g><svg viewBox="0 0 521.4563832345477 117.99568352286474" height="89.49866997020104" width="395.52"><g><rect width="7.093981674424892" height="79.05710796031936" x="100.27176890456033" y="19.46928778127269" fill="white" opacity="1" stroke-width="0" stroke="transparent" fill-opacity="1" class="rect-r$-0" rx="1%" id="SvgjsRect1075" data-palette-color="url(#bfe9f962-2c86-4e59-b7a7-94b57fad0c28)"></rect></g><g transform="matrix(1,0,0,1,125.93638323454778,19.665947253810792)"><svg viewBox="0 0 395.52 78.66378901524315" height="78.66378901524315" width="395.52"><g id="SvgjsG1074"><svg viewBox="0 0 395.52 78.66378901524315" height="78.66378901524315" width="395.52" id="SvgjsSvg1073"><g><svg viewBox="0 0 395.52 78.66378901524315" height="78.66378901524315" width="395.52"><g transform="matrix(1,0,0,1,0,0)"><svg width="395.52" viewBox="2.8 -40.75 206.63 41.1" height="78.66378901524315" data-palette-color="url(#bfe9f962-2c86-4e59-b7a7-94b57fad0c28)"><path d="M30.65-23.5Q30.65-20.3 29.18-17.68 27.7-15.05 24.73-13.48 21.75-11.9 17.45-11.9L17.45-11.9 12.6-11.9 12.6 0 2.8 0 2.8-35.25 17.45-35.25Q21.7-35.25 24.68-33.75 27.65-32.25 29.15-29.6 30.65-26.95 30.65-23.5L30.65-23.5ZM16.5-19.7Q20.65-19.7 20.65-23.5L20.65-23.5Q20.65-27.35 16.5-27.35L16.5-27.35 12.6-27.35 12.6-19.7 16.5-19.7ZM39.55-30.65Q36.95-30.65 35.37-32.08 33.8-33.5 33.8-35.65L33.8-35.65Q33.8-37.85 35.37-39.3 36.95-40.75 39.55-40.75L39.55-40.75Q42.1-40.75 43.67-39.3 45.25-37.85 45.25-35.65L45.25-35.65Q45.25-33.5 43.67-32.08 42.1-30.65 39.55-30.65L39.55-30.65ZM34.6-28.05L44.4-28.05 44.4 0 34.6 0 34.6-28.05ZM78.5 0L67.5 0 62.45-7.05 58.45 0 47.7 0 57.05-14.55 47.3-28.05 58.3-28.05 63.34-21 67.4-28.05 78.15-28.05 68.59-13.75 78.5 0ZM108.19-14.35Q108.19-13.2 108.04-12.05L108.04-12.05 89.49-12.05Q89.64-9.75 90.77-8.63 91.89-7.5 93.64-7.5L93.64-7.5Q96.09-7.5 97.14-9.7L97.14-9.7 107.59-9.7Q106.94-6.8 105.07-4.53 103.19-2.25 100.34-0.95 97.49 0.35 94.04 0.35L94.04 0.35Q89.89 0.35 86.67-1.4 83.44-3.15 81.62-6.4 79.79-9.65 79.79-14.05L79.79-14.05Q79.79-18.45 81.59-21.68 83.39-24.9 86.62-26.65 89.84-28.4 94.04-28.4L94.04-28.4Q98.19-28.4 101.39-26.7 104.59-25 106.39-21.83 108.19-18.65 108.19-14.35L108.19-14.35ZM89.54-16.8L98.19-16.8Q98.19-18.6 96.99-19.63 95.79-20.65 93.99-20.65L93.99-20.65Q92.19-20.65 91.04-19.68 89.89-18.7 89.54-16.8L89.54-16.8ZM112.19-37L121.99-37 121.99 0 112.19 0 112.19-37ZM125.99-14.05Q125.99-18.4 127.56-21.65 129.14-24.9 131.86-26.65 134.59-28.4 137.94-28.4L137.94-28.4Q140.84-28.4 142.94-27.25 145.04-26.1 146.19-24.15L146.19-24.15 146.19-28.05 155.99-28.05 155.99 0 146.19 0 146.19-3.9Q145.04-1.95 142.91-0.8 140.79 0.35 137.94 0.35L137.94 0.35Q134.59 0.35 131.86-1.4 129.14-3.15 127.56-6.43 125.99-9.7 125.99-14.05L125.99-14.05ZM146.19-14.05Q146.19-16.75 144.71-18.3 143.24-19.85 141.09-19.85L141.09-19.85Q138.89-19.85 137.44-18.32 135.99-16.8 135.99-14.05L135.99-14.05Q135.99-11.35 137.44-9.78 138.89-8.2 141.09-8.2L141.09-8.2Q143.24-8.2 144.71-9.75 146.19-11.3 146.19-14.05L146.19-14.05ZM175.29-8.35L178.14-8.35 178.14 0 173.89 0Q163.14 0 163.14-10.65L163.14-10.65 163.14-19.9 159.69-19.9 159.69-28.05 163.14-28.05 163.14-34.85 172.99-34.85 172.99-28.05 178.09-28.05 178.09-19.9 172.99-19.9 172.99-10.5Q172.99-9.35 173.51-8.85 174.04-8.35 175.29-8.35L175.29-8.35ZM209.43-14.35Q209.43-13.2 209.28-12.05L209.28-12.05 190.73-12.05Q190.88-9.75 192.01-8.63 193.13-7.5 194.88-7.5L194.88-7.5Q197.33-7.5 198.38-9.7L198.38-9.7 208.83-9.7Q208.18-6.8 206.31-4.53 204.43-2.25 201.58-0.95 198.73 0.35 195.28 0.35L195.28 0.35Q191.13 0.35 187.91-1.4 184.68-3.15 182.86-6.4 181.03-9.65 181.03-14.05L181.03-14.05Q181.03-18.45 182.83-21.68 184.63-24.9 187.86-26.65 191.08-28.4 195.28-28.4L195.28-28.4Q199.43-28.4 202.63-26.7 205.83-25 207.63-21.83 209.43-18.65 209.43-14.35L209.43-14.35ZM190.78-16.8L199.43-16.8Q199.43-18.6 198.23-19.63 197.03-20.65 195.23-20.65L195.23-20.65Q193.43-20.65 192.28-19.68 191.13-18.7 190.78-16.8L190.78-16.8Z" opacity="1" transform="matrix(1,0,0,1,0,0)" fill="white" class="wordmark-text-0" id="SvgjsPath1072"></path></svg></g></svg></g></svg></g></svg></g><g><svg viewBox="0 0 81.70113624899778 117.99568352286474" height="117.99568352286474" width="81.70113624899778"><g><svg xmlns="http://www.w3.org/2000/svg" xmlns:xlink="http://www.w3.org/1999/xlink" version="1.1" x="0" y="0" viewBox="28.438000000000006 18.657787156984757 43.12400000000001 62.281212843015254" enable-background="new 0 0 100 100" xml:space="preserve" height="117.99568352286474" width="81.70113624899778" class="icon-icon-0" data-fill-palette-color="accent" id="SvgjsSvg1071"></svg></g></svg></g></svg></g><defs><mask></mask></defs></svg></g></mask><linearGradient x1="0.054" x2="0.941" y1="0.5" y2="0.5" id="bfe9f962-2c86-4e59-b7a7-94b57fad0c28"><stop stop-color="#0f3054" offset="0"></stop><stop stop-color="#3b8dcb" offset="0.498"></stop><stop stop-color="#0f3054" offset="1"></stop></linearGradient><rect width="395.52" height="89.49866997020104" fill="#ffffff" mask="url(#13e0e5f2-78c4-49a9-8244-670bf0dd6fbf)" data-fill-palette-color="primary"></rect><mask id="9c6fb0c0-da60-44ff-b9d7-fa8c99e50e50"><g id="SvgjsG1086"><svg viewBox="0 0 395.52 89.49866997020104" height="89.49866997020104" width="395.52"><g><svg viewBox="0 0 521.4563832345477 117.99568352286474" height="89.49866997020104" width="395.52"><g></g><g transform="matrix(1,0,0,1,125.93638323454778,19.665947253810792)"><svg viewBox="0 0 395.52 78.66378901524315" height="78.66378901524315" width="395.52"><g id="SvgjsG1085"><svg viewBox="0 0 395.52 78.66378901524315" height="78.66378901524315" width="395.52" id="SvgjsSvg1084"><g><svg viewBox="0 0 395.52 78.66378901524315" height="78.66378901524315" width="395.52"><g transform="matrix(1,0,0,1,0,0)"><svg width="395.52" viewBox="2.8 -40.75 206.63 41.1" height="78.66378901524315" data-palette-color="url(#bfe9f962-2c86-4e59-b7a7-94b57fad0c28)"></svg></g></svg></g></svg></g></svg></g><g><svg viewBox="0 0 81.70113624899778 117.99568352286474" height="117.99568352286474" width="81.70113624899778"><g><svg xmlns="http://www.w3.org/2000/svg" xmlns:xlink="http://www.w3.org/1999/xlink" version="1.1" x="0" y="0" viewBox="28.438000000000006 18.657787156984757 43.12400000000001 62.281212843015254" enable-background="new 0 0 100 100" xml:space="preserve" height="117.99568352286474" width="81.70113624899778" class="icon-icon-0" data-fill-palette-color="accent" id="SvgjsSvg1083"><path fill="white" d="M47.556 18.807c-0.348-0.226-0.8-0.191-1.111 0.076-0.313 0.266-0.416 0.705-0.255 1.084l0.654 1.515c3.682 8.52 6.227 14.407 0.597 22.456 0.126-6.87-2.793-12.336-8.705-16.28-0.326-0.216-0.755-0.207-1.073 0.022-0.316 0.232-0.456 0.637-0.348 1.016 1.342 4.703-0.628 8.077-3.122 12.351-2.563 4.395-5.753 9.862-5.755 18.325l0 0c0 0 0 0 0 0.002v0.002c0 0 0 0 0 0.002 0.004 11.878 9.662 21.542 21.539 21.555 0.007 0.002 0.015 0.006 0.023 0.006 11.889 0 21.562-9.674 21.562-21.562C71.562 43.064 63.037 28.655 47.556 18.807zM50.015 79.062c-0.006 0-0.009-0.004-0.015-0.004-10.856 0-19.686-8.829-19.688-19.686 0-7.956 2.922-12.964 5.5-17.382 2.207-3.779 4.159-7.127 3.769-11.373 4.844 4.022 6.722 9.356 5.74 16.236-0.059 0.411 0.161 0.814 0.542 0.985 0.381 0.176 0.826 0.072 1.099-0.244 8.347-9.737 6.039-16.514 2.212-25.444 13.257 9.406 20.514 22.521 20.514 37.224C69.688 70.226 60.863 79.053 50.015 79.062z"></path><path fill="white" d="M57.5 64.062h-15c-0.519 0-0.938 0.42-0.938 0.938s0.419 0.938 0.938 0.938h8.438v2.812c0 2.067 1.681 3.75 3.75 3.75s3.75-1.683 3.75-3.75V65C58.438 64.482 58.019 64.062 57.5 64.062zM56.562 68.75c0 1.035-0.842 1.875-1.875 1.875s-1.875-0.84-1.875-1.875v-2.812h3.75V68.75z"></path><path fill="white" d="M42.5 60.312c0.24 0 0.479-0.092 0.663-0.274 0.366-0.366 0.366-0.96 0-1.326L41.951 57.5l1.212-1.212c0.366-0.366 0.366-0.96 0-1.326s-0.96-0.366-1.326 0l-1.212 1.212-1.212-1.212c-0.366-0.366-0.96-0.366-1.326 0s-0.366 0.96 0 1.326l1.212 1.212-1.212 1.212c-0.366 0.366-0.366 0.96 0 1.326 0.184 0.183 0.423 0.274 0.663 0.274s0.479-0.092 0.663-0.274l1.212-1.212 1.212 1.212C42.021 60.221 42.26 60.312 42.5 60.312z"></path><path fill="white" d="M56.837 60.038c0.184 0.183 0.423 0.274 0.663 0.274s0.479-0.092 0.663-0.274l1.212-1.212 1.212 1.212c0.184 0.183 0.423 0.274 0.663 0.274s0.479-0.092 0.663-0.274c0.366-0.366 0.366-0.96 0-1.326L60.701 57.5l1.212-1.212c0.366-0.366 0.366-0.96 0-1.326s-0.96-0.366-1.326 0l-1.212 1.212-1.212-1.212c-0.366-0.366-0.96-0.366-1.326 0s-0.366 0.96 0 1.326l1.212 1.212-1.212 1.212C56.471 59.078 56.471 59.672 56.837 60.038z"></path></svg></g></svg></g></svg></g><defs><mask></mask></defs><mask><g id="SvgjsG1082"><svg viewBox="0 0 395.52 89.49866997020104" height="89.49866997020104" width="395.52"><g><svg viewBox="0 0 521.4563832345477 117.99568352286474" height="89.49866997020104" width="395.52"><g></g><g transform="matrix(1,0,0,1,125.93638323454778,19.665947253810792)"><svg viewBox="0 0 395.52 78.66378901524315" height="78.66378901524315" width="395.52"><g id="SvgjsG1080"><svg viewBox="0 0 395.52 78.66378901524315" height="78.66378901524315" width="395.52" id="SvgjsSvg1079"><g><svg viewBox="0 0 395.52 78.66378901524315" height="78.66378901524315" width="395.52"><g transform="matrix(1,0,0,1,0,0)"><svg width="395.52" viewBox="2.8 -40.75 206.63 41.1" height="78.66378901524315" data-palette-color="url(#bfe9f962-2c86-4e59-b7a7-94b57fad0c28)"></svg></g></svg></g></svg></g></svg></g><g><svg viewBox="0 0 81.70113624899778 117.99568352286474" height="117.99568352286474" width="81.70113624899778"><g><svg xmlns="http://www.w3.org/2000/svg" xmlns:xlink="http://www.w3.org/1999/xlink" version="1.1" x="0" y="0" viewBox="28.438000000000006 18.657787156984757 43.12400000000001 62.281212843015254" enable-background="new 0 0 100 100" xml:space="preserve" height="117.99568352286474" width="81.70113624899778" class="icon-icon-0" data-fill-palette-color="accent" id="SvgjsSvg1077"></svg></g></svg></g></svg></g><defs><mask></mask></defs></svg></g></mask></svg></g></mask><linearGradient x1="0.054" x2="0.941" y1="0.5" y2="0.5" id="ee6a3ac3-3a16-42c3-95ad-45813f9176d4"><stop stop-color="#0f3054" offset="0"></stop><stop stop-color="#3b8dcb" offset="0.498"></stop><stop stop-color="#0f3054" offset="1"></stop></linearGradient><rect width="395.52" height="89.49866997020104" fill="#ffffff" mask="url(#9c6fb0c0-da60-44ff-b9d7-fa8c99e50e50)" data-fill-palette-color="accent"></rect></svg><rect width="395.52" height="89.49866997020104" fill="none" stroke="none" visibility="hidden"></rect></g></svg></g></svg>